<svg width="13" height="14" viewBox="0 0 13 14" fill="none" xmlns="http://www.w3.org/2000/svg">
<path d="M11.1666 7.00006C11.1666 7.00006 9.08022 9.66662 6.50006 9.66662C3.92022 9.66662 1.8335 7.00006 1.8335 7.00006C1.8335 7.00006 3.9199 4.3335 6.50006 4.3335C9.08022 4.3335 11.1666 7.00006 11.1666 7.00006ZM6.50006 5.66662C6.14641 5.66662 5.80724 5.8071 5.55717 6.05717C5.3071 6.30724 5.16662 6.64641 5.16662 7.00006C5.16662 7.35371 5.3071 7.69287 5.55717 7.94294C5.80724 8.19301 6.14641 8.3335 6.50006 8.3335C6.85371 8.3335 7.19287 8.19301 7.44294 7.94294C7.69301 7.69287 7.8335 7.35371 7.8335 7.00006C7.8335 6.64641 7.69301 6.30724 7.44294 6.05717C7.19287 5.8071 6.85371 5.66662 6.50006 5.66662Z" stroke="#344054" stroke-linecap="round" stroke-linejoin="round"/>
<path d="M0.5 3.66656V1.66656C0.5 1.48978 0.570227 1.32024 0.695231 1.19523C0.820235 1.07023 0.989777 1 1.16656 1H3.16656M12.5 3.66656V1.66656C12.5 1.48978 12.4298 1.32024 12.3048 1.19523C12.1798 1.07023 12.0102 1 11.8334 1H9.83344M0.5 10.3334V12.3334C0.5 12.5102 0.570227 12.6798 0.695231 12.8048C0.820235 12.9298 0.989777 13 1.16656 13H3.16656M12.5 10.3334V12.3334C12.5 12.5102 12.4298 12.6798 12.3048 12.8048C12.1798 12.9298 12.0102 13 11.8334 13H9.83344" stroke="#3A3A3A" stroke-linecap="round" stroke-linejoin="round"/>
</svg>
